<svg xmlns="http://www.w3.org/2000/svg" viewBox="0 0 256 256"><defs><linearGradient id="g" x1="20" y1="20" x2="230" y2="230"><stop stop-color="#ff6174"/><stop offset=".55" stop-color="#ff334f"/><stop offset="1" stop-color="#9b0d28"/></linearGradient><filter id="s"><feDropShadow dx="0" dy="8" stdDeviation="10" flood-color="#ff334f" flood-opacity=".35"/></filter></defs><rect width="256" height="256" rx="62" fill="#090c14"/><circle cx="128" cy="128" r="88" fill="url(#g)" filter="url(#s)"/><path d="M74 94c16-28 43-43 72-37 25 5 43 22 49 45-18-10-37-14-58-10-18 3-37 13-53 29-7-8-11-17-10-27z" fill="#fff" opacity=".96"/><path d="M76 156c18 16 38 25 61 25 28 0 51-12 67-33-2 35-31 61-68 61-28 0-51-16-60-40z" fill="#fff" opacity=".82"/><path d="M91 116c12-8 25-13 39-15" stroke="#ff334f" stroke-width="10" stroke-linecap="round"/><text x="128" y="145" text-anchor="middle" font-family="Arial,sans-serif" font-size="31" font-weight="800" fill="#090c14">AVM</text></svg>
